# xmcd CD database file
#
# Track frame offsets:
#	150
#	16478
#	25171
#	35641
#	48418
#	65334
#	75521
#	94397
#	105972
#	125458
#	159891
#	179058
#	215976
#	238730
#	250276
#
# Disc length: 3768 seconds
#
# Revision: 0
# Processed by: cddbd v1.5.1PL0 Copyright (c) Steve Scherf et al.
# Submitted via: CDex 1.51
#
DISCID=cb0eb60f
DTITLE=Sun Ra - Angels and Demons at Play and The Nubians of Plutonia
DYEAR=1900
DGENRE=Jazz
TTITLE0=01-Tiny Pyramids
TTITLE1=02-Between Two Worlds
TTITLE2=03-Music From the World Tomorrow
TTITLE3=04-Angels and Demons at Play
TTITLE4=05-Urnack
TTITLE5=06-Medicine For a Nightmare
TTITLE6=07-A Call For All Demons
TTITLE7=08-Demon's Lullaby
TTITLE8=09-Plutonian Nights
TTITLE9=10-The Golden Lady
TTITLE10=11-Star Time
TTITLE11=12-Nubia
TTITLE12=13-Africa
TTITLE13=14-Watusa
TTITLE14=15-Aiethopia
EXTD=
EXTT0=
EXTT1=
EXTT2=
EXTT3=
EXTT4=
EXTT5=
EXTT6=
EXTT7=
EXTT8=
EXTT9=
EXTT10=
EXTT11=
EXTT12=
EXTT13=
EXTT14=
PLAYORDER=
